<svg xmlns="http://www.w3.org/2000/svg" viewBox="0 0 463.69 165.84"><defs><style>.a{fill:#24422d;}</style></defs><path class="a" d="M0,91.87V2.06C0,.88.46.15,1.78.15h9.73c1.12,0,1.78.53,1.78,1.91v78.1c0,1.25.33,1.78,1.51,1.78H30.13c1.11,0,1.77.52,1.77,1.91v8c0,1.18-.46,1.91-1.77,1.91H1.78C.66,93.78,0,93.25,0,91.87Z"/><path class="a" d="M36.87,74.05c0-18.22,12.56-20.33,24.61-22.47a1.82,1.82,0,0,0,1.77-2V44.25c0-7.37-2.24-11-6.84-11-4.21,0-6.39,3.23-6.58,9.87-.07,1.18-.66,1.51-1.45,1.51h-8c-1,0-1.25-.65-1.25-1.84,0-14.34,8.29-19.93,18-19.93,10.52,0,18.55,6.91,18.55,23.61l.07,31.91a67.11,67.11,0,0,0,1,13.41c.2,1.19-.2,2-1.65,2H66.87c-1.06,0-1.46-.66-1.91-3.16-.37-1.23-.94-1.48-1.71-.72A14,14,0,0,1,52.53,95C44.56,95,36.87,88.52,36.87,74.05Zm26.38-.66V61.68c0-1.65-.46-2-1.45-1.78C54,61.61,49.37,63.32,49.37,73.13c0,7.49,2.7,11.51,7,11.44S63.25,80.36,63.25,73.39Z"/><path class="a" d="M87,91.87V26c0-1.18.46-1.91,1.78-1.91h6.77c1.19,0,1.57.79,1.78,2l.26,3.23c.15,1.05.67,1.25,1.32.32,2.83-4.14,7-6.77,11.9-6.77,9.15,0,15.79,8.16,15.79,21.57V91.87c0,1.18-.46,1.91-1.78,1.91h-8.94c-1.12,0-1.78-.53-1.78-1.91V45.1c0-7.5-3-11.25-7.23-11.25-4.67,0-7.37,4.81-7.37,10.27V91.87c0,1.18-.46,1.91-1.78,1.91H88.78C87.66,93.78,87,93.25,87,91.87Z"/><path class="a" d="M139.93,73.58V35.83c0-1.19-.33-1.78-1.64-1.78h-2.9c-1.11,0-1.77-.52-1.77-1.9V26c0-1.18.46-1.91,1.77-1.91h3.69c1,0,1.51-.39,1.51-1.77V10.17c0-1.18.46-1.9,1.78-1.9h7.95c1.06,0,1.78.46,1.78,1.9V22.28c0,1.25.33,1.77,1.51,1.77h5.79c1.12,0,1.78.53,1.78,1.91v6.19c0,1.18-.46,1.9-1.78,1.9h-5.46c-1,0-1.51.4-1.51,1.78V74c0,5.46,2,9.41,7,9.41,1.38,0,1.78.72,1.78,1.84v6.64c0,1.18-.46,1.91-1.78,1.91C144.67,93.78,139.93,86.54,139.93,73.58Z"/><path class="a" d="M170.79,92V1.81c0-1.12.46-1.81,1.78-1.81h20.52c10.59,0,18.55,8.38,18.55,21.63v4c0,8.57-2.83,14.51-7,17.88-.86.75-.79,1.44.19,2.13,5.4,3.37,8.88,10.82,8.88,20.13v4.69c0,14.13-8,23.32-20,23.32H172.57C171.45,93.78,170.79,93.28,170.79,92ZM190.72,39.2c4.67,0,8-3.06,8-10.57V21.82c0-7.5-3.29-10.57-8-10.57h-5.46c-.72,0-1.18.44-1.18,1.38V38.14c0,.75.46,1.06,1.18,1.06Zm1.38,43.33c5.13,0,8.36-4.07,8.36-12.26V62.71c0-8.19-3.16-12.26-8.16-12.26h-6.64c-1.06,0-1.58.38-1.58,1.69v28.7c0,1.31.79,1.69,1.31,1.69Z"/><path class="a" d="M223,73.39V26c0-1.18.47-1.91,1.78-1.91h9c1,0,1.77.46,1.77,1.91V72.73c0,7.47,3,11.25,7.24,11.25,4.65,0,7.36-4.83,7.36-10.26V26c0-1.18.47-1.91,1.78-1.91h8.95c1.11,0,1.77.53,1.77,1.91V91.87c0,1.18-.46,1.91-1.77,1.91h-6.78c-1.12,0-1.64-.59-1.91-2L252,88.52c-.14-1-.61-1.26-1.25-.33-2.83,4.14-7,6.77-11.91,6.77C229.66,95,223,86.94,223,73.39Z"/><path class="a" d="M276.57,73.58V35.83c0-1.19-.32-1.78-1.64-1.78H272c-1.12,0-1.78-.52-1.78-1.9V26c0-1.18.46-1.91,1.78-1.91h3.68c1,0,1.51-.39,1.51-1.77V10.17c0-1.18.46-1.9,1.78-1.9h8c1,0,1.77.46,1.77,1.9V22.28c0,1.25.33,1.77,1.52,1.77H296c1.12,0,1.78.53,1.78,1.91v6.19c0,1.18-.46,1.9-1.78,1.9h-5.45c-1,0-1.52.4-1.52,1.78V74c0,5.46,2,9.41,7,9.41,1.39,0,1.78.72,1.78,1.84v6.64c0,1.18-.46,1.91-1.78,1.91C281.31,93.78,276.57,86.54,276.57,73.58Z"/><path class="a" d="M307.37,91.87V26c0-1.31.59-1.91,1.91-1.91H318A1.66,1.66,0,0,1,319.87,26V91.87c0,1.32-.6,1.91-1.91,1.91h-8.68C308,93.78,307.37,93.19,307.37,91.87Z"/><path class="a" d="M332.35,91.87V2.06c0-1.18.46-1.91,1.78-1.91h8.94c1.05,0,1.78.46,1.78,1.91V51.22c0,.86,1,1.06,1.25.2L357.35,25.9a2.46,2.46,0,0,1,2.3-1.85h9A1.31,1.31,0,0,1,370,25.9l-11.31,27a2.87,2.87,0,0,0,0,2l12.63,36.9c.35,1.14-.07,1.91-1.25,1.91H361a2.23,2.23,0,0,1-2.23-1.91l-8.36-25.52c-.19-.87-1.05-.92-1.38-.07l-3.55,7.77a9.56,9.56,0,0,0-.59,3.55V91.87c0,1.25-.46,1.91-1.78,1.91h-8.94C333,93.78,332.35,93.25,332.35,91.87Z"/><path class="a" d="M375.46,67.2V50.63c0-21.05,10.2-27.76,19.54-27.76,8.61,0,18.94,5.92,18.94,25.72,0,4.14-.13,6.58-.33,10.13-.13,1.25-.52,1.84-1.77,1.84H388.62c-.59,0-.92.4-.92,1.38v9.47c0,7.9,2.63,12.5,7.17,12.5,3.75,0,6.77-4.27,7.1-11a1.44,1.44,0,0,1,1.51-1.38H412c.92,0,1.25.59,1.12,2C412,89.37,402.69,95,395,95,385.66,95,375.46,88.25,375.46,67.2Zm26.71-15.06c.66,0,1.05-.26,1.05-1.18V45.1c0-7.3-3-11.84-7.83-11.84s-7.69,4.61-7.69,11.84V51c0,.85.26,1.18.92,1.18Z"/><path class="a" d="M424.09,91.87V26c0-1.18.46-1.91,1.78-1.91h6.77c1.18,0,1.57.79,1.78,2l.26,3.23c.14,1.05.67,1.25,1.31.32,2.83-4.14,7-6.77,11.91-6.77,9.14,0,15.79,8.16,15.79,21.57V91.87c0,1.18-.46,1.91-1.78,1.91H453c-1.12,0-1.78-.53-1.78-1.91V45.1c0-7.5-3-11.25-7.24-11.25-4.67,0-7.36,4.81-7.36,10.27V91.87c0,1.18-.46,1.91-1.78,1.91h-8.94C424.75,93.78,424.09,93.25,424.09,91.87Z"/><path class="a" d="M306.19,8.41a8.06,8.06,0,0,1,16.12,0,8.06,8.06,0,0,1-16.12,0Z"/><path class="a" d="M91.72,147.11v-11.5c0-5.42,2.64-8.61,6.2-8.61a4.5,4.5,0,0,1,4,2.28c.34.44.57.28.57-.31V116c0-.42.18-.68.63-.68h2.79c.4,0,.64.2.64.68v38.54c0,.42-.18.68-.64.68h-2.08c-.42,0-.6-.28-.66-.72l0-1.3c-.06-.58-.46-.72-.83-.17a5,5,0,0,1-3.87,2.59C94.86,156.13,91.72,153,91.72,147.11Zm10.8,0V135.57c0-2.4-1.24-5-3.37-5-1.94,0-3.38,1.79-3.38,5.18V147c0,3.4,1.44,5.18,3.38,5.18C101.28,152.17,102.52,149.56,102.52,147.15Z"/><path class="a" d="M111.58,118a2.79,2.79,0,1,1,2.8,2.78A2.8,2.8,0,0,1,111.58,118Zm.77,36.55V128.15a.6.6,0,0,1,.69-.69h2.69a.6.6,0,0,1,.68.69v26.43a.6.6,0,0,1-.68.68H113A.6.6,0,0,1,112.35,154.58Z"/><path class="a" d="M122,154.58V128.15c0-.43.18-.69.63-.69h2.11c.4,0,.55.27.62.73l.09,1.45c0,.43.26.51.51.13a5.52,5.52,0,0,1,4.73-2.77c3.63,0,6.17,3.2,6.17,8.61v19c0,.42-.18.68-.63.68h-2.8c-.39,0-.63-.2-.63-.68V135.73c0-3.43-1.44-5.18-3.34-5.18-2.13,0-3.4,2.28-3.4,4.69v19.34c0,.42-.18.68-.64.68h-2.79C122.2,155.26,122,155.06,122,154.58Z"/><path class="a" d="M150.59,165.15v-2.27c0-.47.21-.65.68-.65a3.29,3.29,0,0,0,3.53-3.62V128.15c0-.47.21-.69.68-.69h2.69a.6.6,0,0,1,.68.69v30.26c0,5-2.51,7.43-7.58,7.43C150.8,165.84,150.59,165.62,150.59,165.15ZM154,118a2.79,2.79,0,1,1,2.8,2.78A2.8,2.8,0,0,1,154,118Z"/><path class="a" d="M163.87,146.16v-9.6c0-7.21,4-9.56,7.47-9.56s7.53,2.38,7.53,9.56v9.6c0,7.18-4,9.57-7.53,9.57S163.87,153.37,163.87,146.16Zm10.94,1.16V135.4c0-3.14-1.39-4.81-3.47-4.81s-3.42,1.7-3.42,4.81v11.92c0,3.11,1.36,4.82,3.42,4.82S174.81,150.47,174.81,147.32Z"/><path class="a" d="M182.67,154.58V128.15c0-.43.18-.69.63-.69h2.11c.38,0,.57.23.64.73l.11,1.59c.05.43.26.5.51.11a5.81,5.81,0,0,1,4.91-2.89c.47,0,.58.23.58.68v2.41c0,.4-.09.67-.61.68-2.91.11-4.82,2.93-4.82,6.57v17.24c0,.42-.18.68-.64.68H183.3C182.91,155.26,182.67,155.06,182.67,154.58Z"/><path class="a" d="M194.78,147.11v-11.5c0-5.42,2.64-8.61,6.2-8.61a4.5,4.5,0,0,1,4,2.28c.34.44.57.28.57-.31V116c0-.42.18-.68.63-.68H209c.39,0,.63.2.63.68v38.54c0,.42-.18.68-.63.68h-2.09c-.41,0-.6-.28-.65-.72l0-1.3c-.07-.58-.47-.72-.84-.17a5,5,0,0,1-3.86,2.59C197.92,156.13,194.78,153,194.78,147.11Zm10.8,0V135.57c0-2.4-1.24-5-3.37-5-1.94,0-3.37,1.79-3.37,5.18V147c0,3.4,1.43,5.18,3.37,5.18C204.34,152.17,205.58,149.56,205.58,147.15Z"/><path class="a" d="M214.22,154.58V128.15c0-.43.18-.69.63-.69H217c.4,0,.55.27.62.73l.09,1.45c.05.43.26.51.51.13a5.55,5.55,0,0,1,4.73-2.77c3.64,0,6.17,3.2,6.17,8.61v19c0,.42-.18.68-.63.68h-2.8c-.39,0-.63-.2-.63-.68V135.73c0-3.43-1.43-5.18-3.34-5.18-2.13,0-3.4,2.28-3.4,4.69v19.34c0,.42-.18.68-.63.68h-2.8C214.46,155.26,214.22,155.06,214.22,154.58Z"/><path class="a" d="M232.88,147.44c0-7.26,4.81-7.89,9.9-8.9a.67.67,0,0,0,.64-.73v-2.47c0-3.32-1-5-3.19-5-1.94,0-3,1.43-3,4.39,0,.46-.24.59-.53.59h-2.48c-.36,0-.47-.24-.47-.69,0-5.44,2.94-7.68,6.75-7.68,4.11,0,7,2.73,7,9.1l0,13.27a27.63,27.63,0,0,0,.42,5.16c.08.43,0,.73-.56.73h-2.57c-.43,0-.57-.3-.76-1.46-.13-.44-.36-.52-.63-.23a5.46,5.46,0,0,1-4.37,2.18C235.92,155.75,232.88,153.33,232.88,147.44Zm.86-29.25a2.57,2.57,0,1,1,2.57,2.57A2.58,2.58,0,0,1,233.74,118.19Zm6.48,34.14c2,0,3.2-1.9,3.2-4.88V142c0-.56-.18-.72-.55-.63-3.67.79-5.94,1.36-5.94,5.82,0,3.37,1.3,5.21,3.29,5.18ZM242,118.19a2.58,2.58,0,1,1,2.58,2.57A2.59,2.59,0,0,1,242,118.19Z"/><path class="a" d="M252.27,154.58V128.15c0-.43.18-.69.63-.69H255c.38,0,.57.23.64.73l.11,1.59c.05.43.26.5.5.11a5.83,5.83,0,0,1,4.92-2.89c.46,0,.58.23.58.68v2.41c0,.4-.09.67-.61.68-2.91.11-4.83,2.93-4.83,6.57v17.24c0,.42-.18.68-.63.68H252.9C252.51,155.26,252.27,155.06,252.27,154.58Z"/><path class="a" d="M264.11,147.44c0-7.26,4.81-7.89,9.9-8.9a.66.66,0,0,0,.64-.73v-2.47c0-3.32-1-5-3.19-5-1.94,0-3,1.43-3,4.39,0,.46-.24.59-.53.59h-2.49c-.36,0-.47-.24-.47-.69,0-5.44,2.94-7.68,6.75-7.68,4.11,0,7,2.73,7,9.1l0,13.27a26.61,26.61,0,0,0,.43,5.16c.07.43-.05.73-.57.73H276c-.42,0-.57-.3-.76-1.46-.12-.44-.35-.52-.63-.23a5.46,5.46,0,0,1-4.37,2.18C267.15,155.75,264.11,153.33,264.11,147.44Zm7.34,4.89c2,0,3.2-1.9,3.2-4.88V142c0-.56-.18-.72-.54-.63-3.68.79-5.94,1.36-5.94,5.82,0,3.37,1.3,5.21,3.28,5.18Z"/><path class="a" d="M300.43,153.05c-.34-.49-.72-.42-.78.19l0,1.3c-.06.5-.26.72-.64.72h-2.14c-.4,0-.63-.2-.63-.68V116c0-.42.17-.68.63-.68h2.79c.37,0,.63.18.63.68v12.73c0,.59.29.71.65.31a4.8,4.8,0,0,1,4-2.08c3.64,0,6.12,3.21,6.12,8.61v11.5c0,5.52-2.7,8.64-6.23,8.62A5.08,5.08,0,0,1,300.43,153.05ZM307,147V135.73c0-3.37-1.46-5.18-3.38-5.18-2.11,0-3.37,2.3-3.37,4.69v12.25c0,2.38,1.26,4.68,3.37,4.68C305.56,152.17,307,150.37,307,147Z"/><path class="a" d="M315.16,147.11v-19c0-.43.18-.69.63-.69h2.79c.37,0,.63.18.63.69V147c0,3.42,1.44,5.18,3.34,5.18,2.13,0,3.41-2.29,3.41-4.68V128.15c0-.43.18-.69.63-.69h2.79c.4,0,.63.2.63.69v26.43c0,.42-.17.68-.63.68h-2.11c-.39,0-.59-.21-.67-.72l-.06-1.46c0-.41-.24-.5-.48-.13a5.56,5.56,0,0,1-4.73,2.78C317.69,155.73,315.16,152.57,315.16,147.11Z"/><path class="a" d="M335.34,147.73V131.38c0-.43-.14-.65-.6-.65h-1.33c-.39,0-.63-.2-.63-.68v-1.9c0-.43.18-.69.63-.69H335c.34,0,.54-.16.54-.64v-5.06c0-.42.18-.68.63-.68h2.49c.37,0,.63.18.63.68v5.06c0,.45.14.64.54.64h2.52c.39,0,.63.2.63.69v1.9c0,.42-.18.68-.63.68h-2.42c-.34,0-.54.16-.54.65v16.55c0,2.3.94,3.94,3,3.94.48,0,.63.26.63.65v2.06c0,.42-.18.68-.63.68C337.2,155.26,335.34,152.52,335.34,147.73Z"/><path class="a" d="M346.82,118a2.79,2.79,0,1,1,2.8,2.78A2.8,2.8,0,0,1,346.82,118Zm.77,36.55V128.15a.6.6,0,0,1,.68-.69H351a.6.6,0,0,1,.68.69v26.43a.6.6,0,0,1-.68.68h-2.69A.6.6,0,0,1,347.59,154.58Z"/><path class="a" d="M357.4,154.58V116c0-.42.18-.68.64-.68h2.79c.37,0,.63.18.63.68v23.11c0,.3.34.37.45.07l5.26-11.09a.91.91,0,0,1,.83-.67h2.84a.46.46,0,0,1,.48.67l-4.84,10.7a1,1,0,0,0,0,.74l5.44,15c.14.41,0,.68-.43.68H368.6a.82.82,0,0,1-.8-.68l-4-11.27c-.08-.32-.37-.33-.5,0l-1.6,3.3a3.15,3.15,0,0,0-.22,1.25v6.74c0,.44-.18.68-.63.68H358C357.64,155.26,357.4,155.06,357.4,154.58Z"/></svg>